#!OML:ASF I:\Actors\actors\Patient Classification 1\Patient 1\Session 1\Subject1.ASF
:FULLY-SPECIFIED
:DEGREES
347
root 0.0394546 17.4222 8.26555 8.2026 0.984895 -10.6168
lowerback 1.19655 3.70694 7.69426
upperback -5.74919 5.46469 2.26174
thorax -6.21316 2.3805 -2.24937
lowerneck -13.5248 -6.44207 -7.53635
upperneck 24.7953 -9.93712 9.80478
head 11.1426 -4.12084 3.43962
rclavicle 1.24489e-014 -2.0276e-014
rhumerus 7.15686 51.4298 -64.5997
rradius 72.5087
rwrist 41.3131
rhand -19.8567 -38.0688
rfingers 7.12502
rthumb 6.47816 -67.9497
lclavicle 1.24489e-014 -2.0276e-014
lhumerus -10.8852 -44.5 94.5247
lradius 73.5661
lwrist 0.677102
lhand -3.19177 18.4616
lfingers 7.12502
lthumb 22.5299 47.1671
rfemur -4.45871 23.1319 25.2498
rtibia 4.79698
rfoot -13.4502 -25.7741
rtoes 2.20125
lfemur 3.53963 -40.5813 -7.61247
ltibia -4.0503
lfoot -19.639 49.6562
ltoes 8.73876
348
root 0.0384925 17.4219 8.2657 8.20012 1.05487 -10.6871
lowerback 1.20412 3.70313 7.76064
upperback -5.73408 5.46389 2.28891
thorax -6.19903 2.37832 -2.25724
lowerneck -13.5385 -6.45432 -7.35909
upperneck 24.6951 -9.93144 9.60423
head 11.0849 -4.12616 3.33444
rclavicle 2.48357e-014 -7.95139e-015
rhumerus 7.66067 51.4323 -64.2644
rradius 72.0509
rwrist 41.2681
rhand -20.2494 -38.5094
rfingers 7.12502
rthumb 6.09901 -68.4016
lclavicle 2.48357e-014 -7.95139e-015
lhumerus -10.8246 -43.8843 94.7555
lradius 73.3497
lwrist -0.13273
lhand -3.7938 18.4047
lfingers 7.12502
lthumb 21.952 47.1792
rfemur -4.48691 23.1027 25.3364
rtibia 4.85506
rfoot -13.4832 -25.7917
rtoes 2.08406
lfemur 3.45104 -40.4849 -7.44484
ltibia -4.04671
lfoot -19.5783 49.5292
ltoes 8.7484
349
root 0.0365506 17.4213 8.26641 8.22528 1.11758 -10.7332
lowerback 1.20376 3.7099 7.799
upperback -5.73169 5.47509 2.29745
thorax -6.19319 2.38246 -2.26963
lowerneck -13.5207 -6.46389 -7.24551
upperneck 24.5354 -9.92908 9.50068
head 11.0088 -4.13021 3.27539
rclavicle -1.85118e-015 -1.68967e-014
rhumerus 7.99609 51.2944 -64.1146
rradius 71.6286
rwrist 41.2368
rhand -20.1158 -38.7663
rfingers 7.12502
rthumb 6.22801 -68.6547
lclavicle -1.85118e-015 -1.68967e-014
lhumerus -10.7257 -43.3189 94.9423
lradius 73.1146
lwrist -1.22929
lhand -4.06966 18.3009
lfingers 7.12502
lthumb 21.6871 47.1062
rfemur -4.5301 23.1521 25.3911
rtibia 4.88471
rfoot -13.5011 -25.8809
rtoes 1.95638
lfemur 3.31631 -40.3291 -7.26829
ltibia -4.03005
lfoot -19.4823 49.3543
ltoes 8.8695
350
root 0.036537 17.4207 8.26855 8.24553 1.15594 -10.733
lowerback 1.19895 3.71536 7.84572
upperback -5.71148 5.48148 2.28076
thorax -6.16279 2.38436 -2.31154
lowerneck -13.6159 -6.49146 -7.34317
upperneck 24.5043 -9.97589 9.64284
head 11.035 -4.14178 3.33385
rclavicle 1.34863e-014 3.57812e-014
rhumerus 8.32994 51.1515 -64.006
rradius 71.2607
rwrist 40.9787
rhand -19.061 -38.8636
rfingers 7.12502
rthumb 7.24626 -68.7195
lclavicle 1.34863e-014 3.57812e-014
lhumerus -10.5032 -42.8703 95.0157
lradius 72.87
lwrist -2.26214
lhand -4.14597 18.5938
lfingers 7.12502
lthumb 21.6138 47.4075
rfemur -4.5342 23.1686 25.3915
rtibia 4.8611
rfoot -13.5029 -25.9361
rtoes 2.22691
lfemur 3.24749 -40.2129 -7.2146
ltibia -4.00825
lfoot -19.3829 49.2257
ltoes 8.72821
351
root 0.03751 17.4198 8.27235 8.26173 1.155 -10.7046
lowerback 1.16434 3.7158 7.86724
upperback -5.68122 5.47553 2.25741
thorax -6.10678 2.38254 -2.34346
lowerneck -13.5945 -6.51098 -7.43712
upperneck 24.337 -10.0182 9.83385
head 10.9898 -4.15228 3.41099
rclavicle 2.43325e-014 3.73715e-014
rhumerus 8.64906 51.0344 -63.9873
rradius 70.8781
rwrist 40.5946
rhand -17.7016 -39.0329
rfingers 7.12502
rthumb 8.55833 -68.8395
lclavicle 2.43325e-014 3.73715e-014
lhumerus -10.2227 -42.4631 95.0153
lradius 72.5432
lwrist -2.97402
lhand -4.35184 18.8461
lfingers 7.12502
lthumb 21.4161 47.6824
rfemur -4.51031 23.1531 25.3578
rtibia 4.81921
rfoot -13.5043 -25.9265
rtoes 2.48399
lfemur 3.25243 -40.2106 -7.26534
ltibia -3.98843
lfoot -19.4335 49.2041
ltoes 8.66953
352
root 0.037632 17.4193 8.27528 8.29052 1.12873 -10.6717
lowerback 1.14189 3.72095 7.85543
upperback -5.67811 5.4777 2.23155
thorax -6.08854 2.38432 -2.36216
lowerneck -13.479 -6.52952 -7.52728
upperneck 24.1418 -10.0587 10.013
head 10.9146 -4.16692 3.48519
rclavicle 2.42952e-014 -8.34896e-015
rhumerus 8.85269 50.9286 -64.1156
rradius 70.5187
rwrist 40.2062
rhand -16.3931 -39.3576
rfingers 7.12502
rthumb 9.82096 -69.1086
lclavicle 2.42952e-014 -8.34896e-015
lhumerus -9.9739 -42.0904 95.0136
lradius 72.1149
lwrist -3.27269
lhand -4.55091 18.9157
lfingers 7.12502
lthumb 21.2249 47.7737
rfemur -4.52051 23.1628 25.3061
rtibia 4.79499
rfoot -13.5057 -25.9084
rtoes 2.38272
lfemur 3.26832 -40.2753 -7.32121
ltibia -4.00888
lfoot -19.4533 49.2904
ltoes 8.64159
353
root 0.0375972 17.4197 8.27721 8.29651 1.08933 -10.6657
lowerback 1.16794 3.76251 7.9002
upperback -5.67588 5.53644 2.20554
thorax -6.08951 2.41032 -2.4179
lowerneck -13.4071 -6.59226 -7.63276
upperneck 24.0384 -10.1345 10.0795
head 10.8802 -4.20825 3.51564
rclavicle -3.12465e-014 3.97569e-014
rhumerus 8.97341 50.7528 -64.254
rradius 70.272
rwrist 39.8263
rhand -14.8646 -39.6146
rfingers 7.12502
rthumb 11.2953 -69.2904
lclavicle -3.12465e-014 3.97569e-014
lhumerus -9.72672 -41.8486 95.0511
lradius 71.6475
lwrist -3.22914
lhand -4.75157 19.1312
lfingers 7.12502
lthumb 21.0321 48.0107
rfemur -4.52008 23.1737 25.2953
rtibia 4.77742
rfoot -13.4428 -25.8906
rtoes 2.16325
lfemur 3.32778 -40.3447 -7.36442
ltibia -4.05847
lfoot -19.4971 49.3973
ltoes 8.7413
354
root 0.0380505 17.4202 8.27944 8.28942 1.04576 -10.6958
lowerback 1.20055 3.81989 7.99486
upperback -5.65172 5.61869 2.19891
thorax -6.06636 2.4474 -2.48129
lowerneck -13.379 -6.6809 -7.82311
upperneck 23.9575 -10.2377 10.1865
head 10.8734 -4.26317 3.57022
rclavicle 2.46804e-014 4.01545e-014
rhumerus 9.08891 50.5373 -64.3398
rradius 70.1059
rwrist 39.2743
rhand -13.1219 -39.7074
rfingers 7.12502
rthumb 12.9756 -69.2839
lclavicle 2.46804e-014 4.01545e-014
lhumerus -9.45448 -41.6612 95.0942
lradius 71.1791
lwrist -3.27801
lhand -4.94968 19.3518
lfingers 7.12502
lthumb 20.8418 48.2524
rfemur -4.50616 23.1739 25.3386
rtibia 4.78708
rfoot -13.4292 -25.8385
rtoes 2.12803
lfemur 3.38264 -40.3828 -7.38474
ltibia -4.03818
lfoot -19.629 49.4472
ltoes 8.99865
355
root 0.0348205 17.4234 8.28395 8.39178 0.939684 -10.4297
lowerback 1.07535 3.85543 7.64671
upperback -5.62387 5.63318 2.1561
thorax -5.98606 2.47531 -2.32622
lowerneck -13.3748 -6.7199 -8.04837
upperneck 23.8368 -10.2829 10.3926
head 10.8587 -4.28384 3.67458
rclavicle 1.85491e-014 -1.35174e-014
rhumerus 9.34757 50.5151 -64.3296
rradius 69.9359
rwrist 38.2101
rhand -11.3231 -40.05
rfingers 7.12502
rthumb 14.7092 -69.5082
lclavicle 1.85491e-014 -1.35174e-014
lhumerus -9.13446 -41.3748 95.0751
lradius 70.6988
lwrist -3.62922
lhand -5.18826 19.548
lfingers 7.12502
lthumb 20.6125 48.4736
rfemur -4.63597 23.3237 24.9845
rtibia 4.81782
rfoot -13.4985 -25.9024
rtoes 2.20061
lfemur 3.28555 -40.5521 -7.68365
ltibia -3.91579
lfoot -19.9363 49.6298
ltoes 9.3727
